<svg xmlns="http://www.w3.org/2000/svg" viewBox="0 0 20 25" x="0px" y="0px"><g data-name="Sign Up"><path d="M6.13971,6.42572a3.19,3.19,0,1,1,3.19,3.19A3.19017,3.19017,0,0,1,6.13971,6.42572Zm4.85,8.49a1.50456,1.50456,0,0,1,1.34-1.49,1.47274,1.47274,0,0,1,1.34-1.32,3.45884,3.45884,0,0,0-2.85-1.49h-2.98a3.50386,3.50386,0,0,0-3.5,3.5v2.11a.49514.49514,0,0,0,.5.5h7.57a.83678.83678,0,0,1-.08-.31A1.50708,1.50708,0,0,1,10.98969,14.91571Zm4.17059-.49591h-.83447v-.83447a.5.5,0,0,0-1,0v.83447h-.83448a.5.5,0,0,0,0,1h.83448v.83447a.5.5,0,0,0,1,0V15.4198h.83447a.5.5,0,0,0,0-1Z"/></g><text x="0" y="35" fill="#000000" font-size="5px" font-weight="bold" font-family="'Helvetica Neue', Helvetica, Arial-Unicode, Arial, Sans-serif">Created by The Icon Z</text><text x="0" y="40" fill="#000000" font-size="5px" font-weight="bold" font-family="'Helvetica Neue', Helvetica, Arial-Unicode, Arial, Sans-serif">from the Noun Project</text></svg>