<svg xmlns="http://www.w3.org/2000/svg" xmlns:xlink="http://www.w3.org/1999/xlink" version="1.1" x="0px" y="0px" viewBox="0 0 100 125" enable-background="new 0 0 100 100" xml:space="preserve"><g><path d="M92.869,47.438L52.111,6.681c-0.753-0.753-1.757-1.168-2.828-1.168s-2.075,0.415-2.828,1.168L5.697,47.438   c-1.56,1.56-1.56,4.098,0,5.656l40.758,40.758c0.753,0.753,1.757,1.167,2.828,1.167s2.075-0.414,2.828-1.167l40.758-40.758   C94.429,51.536,94.429,48.998,92.869,47.438z M91.455,51.681L50.697,92.438c-0.75,0.75-2.078,0.75-2.828,0L7.111,51.681   c-0.779-0.78-0.779-2.048,0-2.828L47.869,8.095c0.375-0.375,0.877-0.582,1.414-0.582s1.039,0.207,1.414,0.582l40.758,40.758   C92.234,49.632,92.234,50.901,91.455,51.681z"/><path d="M50.344,11.608c-0.564-0.564-1.557-0.564-2.121,0L10.625,49.206c-0.585,0.585-0.585,1.536,0,2.121l37.598,37.598   c0.282,0.282,0.659,0.438,1.061,0.438s0.778-0.155,1.061-0.438l37.598-37.598c0.585-0.585,0.585-1.536,0-2.121L50.344,11.608z    M87.234,50.62L49.637,88.218c-0.188,0.188-0.52,0.188-0.707,0L11.332,50.62c-0.195-0.195-0.195-0.512,0-0.707L48.93,12.315   c0.094-0.094,0.219-0.145,0.354-0.145s0.26,0.051,0.354,0.145l37.598,37.598C87.43,50.108,87.43,50.425,87.234,50.62z"/><polygon points="64,47 25,47 25,53 64,53 64,57.396 76.348,50.267 64,43.137  "/></g><text x="0" y="115" fill="#000000" font-size="5px" font-weight="bold" font-family="'Helvetica Neue', Helvetica, Arial-Unicode, Arial, Sans-serif">Created by Adam Zubin</text><text x="0" y="120" fill="#000000" font-size="5px" font-weight="bold" font-family="'Helvetica Neue', Helvetica, Arial-Unicode, Arial, Sans-serif">from the Noun Project</text></svg>