<svg xmlns="http://www.w3.org/2000/svg" xmlns:xlink="http://www.w3.org/1999/xlink" version="1.1" x="0px" y="0px" viewBox="0 0 100 125" enable-background="new 0 0 100 100" xml:space="preserve"><g><path d="M93.586,47.438L52.828,6.681C52.075,5.928,51.071,5.513,50,5.513s-2.075,0.415-2.828,1.168L6.414,47.438   c-1.56,1.56-1.56,4.098,0,5.656l40.758,40.758c0.753,0.753,1.757,1.167,2.828,1.167s2.075-0.414,2.828-1.167l40.758-40.758   C95.146,51.536,95.146,48.998,93.586,47.438z M92.172,51.681L51.414,92.438c-0.75,0.75-2.078,0.75-2.828,0L7.828,51.681   c-0.779-0.78-0.779-2.048,0-2.828L48.586,8.095C48.961,7.719,49.463,7.513,50,7.513s1.039,0.207,1.414,0.582l40.758,40.758   C92.951,49.632,92.951,50.901,92.172,51.681z"/><path d="M51.061,11.608c-0.564-0.564-1.557-0.564-2.121,0L11.342,49.206c-0.585,0.585-0.585,1.536,0,2.121l37.598,37.598   c0.282,0.282,0.659,0.438,1.061,0.438s0.778-0.155,1.061-0.438l37.598-37.598c0.585-0.585,0.585-1.536,0-2.121L51.061,11.608z    M87.951,50.62L50.354,88.218c-0.188,0.188-0.52,0.188-0.707,0L12.049,50.62c-0.195-0.195-0.195-0.512,0-0.707l37.598-37.598   C49.74,12.222,49.865,12.17,50,12.17s0.26,0.051,0.354,0.145l37.598,37.598C88.146,50.108,88.146,50.425,87.951,50.62z"/><polygon points="64,47 36,47 36,43.137 23.652,50.266 36,57.396 36,53 64,53 64,57.396 76.348,50.266 64,43.137  "/></g><text x="0" y="115" fill="#000000" font-size="5px" font-weight="bold" font-family="'Helvetica Neue', Helvetica, Arial-Unicode, Arial, Sans-serif">Created by Adam Zubin</text><text x="0" y="120" fill="#000000" font-size="5px" font-weight="bold" font-family="'Helvetica Neue', Helvetica, Arial-Unicode, Arial, Sans-serif">from the Noun Project</text></svg>