<svg xmlns="http://www.w3.org/2000/svg" viewBox="0 0 32 40" x="0px" y="0px"><g data-name="Layer 33"><path d="M29,12V10a1,1,0,0,0,0-2H3a1,1,0,0,0,0,2v2a1,1,0,0,0-1,1v2.05A2.73,2.73,0,0,1,2.5,15,2.5,2.5,0,0,1,5,17.5v1.74a7.47,7.47,0,0,1,1.42.54,1.66,1.66,0,0,0,.91.22,1.66,1.66,0,0,0,.91-.22c.21-.1.46-.22.76-.33V17.5a2.5,2.5,0,0,1,5,0v1.84a7.45,7.45,0,0,1,1.08.44A1.66,1.66,0,0,0,16,20a1.64,1.64,0,0,0,.91-.22,7.82,7.82,0,0,1,1.1-.44V17.5a2.5,2.5,0,0,1,5,0v2c.29.11.54.22.75.32a1.66,1.66,0,0,0,.91.22,1.64,1.64,0,0,0,.91-.22A7.89,7.89,0,0,1,27,19.24V17.5A2.5,2.5,0,0,1,29.5,15a2.73,2.73,0,0,1,.5.05V13A1,1,0,0,0,29,12Zm-2,0H25V10h2Zm-8,0H17V10h2Zm2-2h2v2H21Zm-6,2H13V10h2Zm-4,0H9V10h2ZM5,10H7v2H5Z"/><path d="M29,21a5.55,5.55,0,0,0-2.59.59,3.47,3.47,0,0,1-1.75.41,3.52,3.52,0,0,1-1.75-.41A5.5,5.5,0,0,0,20.33,21a5.52,5.52,0,0,0-2.59.59A3.49,3.49,0,0,1,16,22a3.45,3.45,0,0,1-1.74-.41A5.58,5.58,0,0,0,11.66,21a5.5,5.5,0,0,0-2.58.59A3.52,3.52,0,0,1,7.33,22a3.52,3.52,0,0,1-1.75-.41A5.5,5.5,0,0,0,3,21a1,1,0,0,0,0,2,3.52,3.52,0,0,1,1.75.41A5.5,5.5,0,0,0,7.33,24a5.58,5.58,0,0,0,2.59-.59A3.45,3.45,0,0,1,11.66,23a3.52,3.52,0,0,1,1.75.41A5.5,5.5,0,0,0,16,24a5.55,5.55,0,0,0,2.59-.59A3.47,3.47,0,0,1,20.33,23a3.52,3.52,0,0,1,1.75.41,6,6,0,0,0,5.17,0A3.47,3.47,0,0,1,29,23a1,1,0,0,0,0-2Z"/></g><text x="0" y="47" fill="#000000" font-size="5px" font-weight="bold" font-family="'Helvetica Neue', Helvetica, Arial-Unicode, Arial, Sans-serif">Created by Ahmad Roaayala</text><text x="0" y="52" fill="#000000" font-size="5px" font-weight="bold" font-family="'Helvetica Neue', Helvetica, Arial-Unicode, Arial, Sans-serif">from the Noun Project</text></svg>