<svg xmlns="http://www.w3.org/2000/svg" version="1.1" viewBox="-5.0 -10.0 110.0 135.0">
 <path d="m90.625 56.398v-22.887h6.1484v-4.4141l-93.547 0.003906v4.4141h6.4141l-0.003906 22.609c-3.5742 3.6875-6.4141 7.9141-8.2891 12.551l4.1016 1.6484c6.1758-15.273 24.074-25.551 44.551-25.551s38.375 10.273 44.551 25.551l4.1016-1.6484c-1.8281-4.5273-4.5781-8.6523-8.0273-12.277zm-3.3125-3.1367c-2.875-2.4492-6.1133-4.6016-9.6367-6.4141v-13.336h9.6367zm-48.477-19.75h9.6367v6.875c-3.2891 0.074219-6.5117 0.39844-9.6367 0.96094zm-3.3125 8.5117c-3.3633 0.78906-6.5859 1.8516-9.6367 3.1484v-11.664h9.6367zm16.266-8.5117h9.6367v7.875c-3.125-0.5625-6.3359-0.91406-9.6367-1zm12.949 0h9.6367v11.773c-3.0508-1.3242-6.2734-2.3867-9.6367-3.1992zm-42.152 0v13.199c-3.5117 1.7891-6.75 3.9141-9.6367 6.3359v-19.535z"/>
</svg>